<svg width="13" height="12" viewBox="0 0 13 12" fill="none" xmlns="http://www.w3.org/2000/svg">
    <g clip-path="url(#clip0_86_4)">
        <path d="M9.10548 1.42307C8.97914 1.40608 8.86206 1.48656 8.84358 1.603C8.70584 2.47039 8.43576 3.26204 8.06259 3.89239C7.94412 4.09247 7.81623 4.27357 7.6825 4.43058C7.60371 4.52309 7.62105 4.65706 7.72132 4.72981C7.76362 4.76051 7.81392 4.77539 7.86384 4.77539C7.93221 4.77539 7.9999 4.74745 8.04548 4.69399C8.19498 4.51849 8.33706 4.31754 8.46775 4.09679C8.86689 3.42261 9.15479 2.58165 9.30043 1.66485C9.31889 1.54839 9.23165 1.44015 9.10548 1.42307Z" fill="black" fill-opacity="0.25"/>
        <path d="M9.15492 1.13653C9.28242 1.13653 9.38578 1.04113 9.38578 0.923439C9.38578 0.805751 9.28242 0.710346 9.15492 0.710346C9.02743 0.710346 8.92407 0.805751 8.92407 0.923439C8.92407 1.04113 9.02743 1.13653 9.15492 1.13653Z" fill="black" fill-opacity="0.25"/>
        <path d="M11.3526 1.19568C11.0838 0.900606 10.6902 0.731364 10.2725 0.731364H10.1688C10.1775 0.55992 10.1822 0.387116 10.1822 0.213093C10.1822 0.0954137 10.0788 0 9.95131 0H3.04859C2.92111 0 2.81774 0.0954137 2.81774 0.213093C2.81774 0.387092 2.82241 0.55992 2.83112 0.731364H2.72717C2.3097 0.731364 1.91617 0.900559 1.64747 1.19559C1.37871 1.49071 1.26569 1.87776 1.33747 2.25758L1.64846 3.90242C1.76665 4.52717 2.35124 4.98064 3.03846 4.98064H4.22504C4.6615 5.54269 5.16695 5.92955 5.71015 6.11977V7.64931H4.71431C4.58683 7.64931 4.48346 7.74473 4.48346 7.86241V9.04504H3.90103C3.77354 9.04504 3.67018 9.14045 3.67018 9.25813V11.7869C3.67018 11.9046 3.77354 12 3.90103 12H9.09883C9.22631 12 9.32968 11.9046 9.32968 11.7869V9.25813C9.32968 9.14045 9.22631 9.04504 9.09883 9.04504H8.51639V7.86241C8.51639 7.74473 8.41303 7.64931 8.28554 7.64931H7.2895V6.11986C7.83278 5.92969 8.3383 5.54281 8.77484 4.98068H9.96152C10.6486 4.98068 11.233 4.52724 11.3512 3.90252L11.6625 2.25766C11.7343 1.87781 11.6213 1.49076 11.3526 1.19568ZM10.0444 1.86784H10.2725C10.3417 1.86784 10.3853 1.89988 10.4106 1.92777C10.435 1.95433 10.4616 1.99923 10.4498 2.06188L10.1383 3.70721C10.1234 3.78645 10.0491 3.84397 9.96157 3.84397H9.4515C9.72282 3.24871 9.9229 2.58004 10.0444 1.86784ZM3.54841 3.84397H3.03844C2.95076 3.84397 2.87634 3.78645 2.86141 3.70705L2.55048 2.06216C2.53857 1.99914 2.56528 1.95388 2.58989 1.92695C2.62566 1.88774 2.6719 1.86784 2.72722 1.86784H2.95554C3.07703 2.58004 3.27708 3.24871 3.54841 3.84397ZM3.03846 4.55443C2.57607 4.55443 2.18278 4.24939 2.10325 3.82913L1.79232 2.18432C1.74405 1.9288 1.82005 1.66839 2.00088 1.46985C2.18166 1.27139 2.44635 1.15757 2.72717 1.15757H2.86197C2.87093 1.25287 2.88124 1.34758 2.8929 1.44168H2.72722C2.46768 1.44168 2.30848 1.57378 2.23673 1.65243C2.1648 1.73123 2.05082 1.89881 2.09566 2.1355L2.40652 3.78015C2.45991 4.06412 2.72568 4.27018 3.03841 4.27018H3.76186C3.79289 4.32669 3.82445 4.38263 3.85687 4.43745C3.88034 4.47708 3.90415 4.51601 3.92817 4.55445H3.03846V4.55443ZM8.86803 9.47115V11.5737H4.13193V9.47115H8.86803ZM8.05474 8.07545V9.04499H4.94519V8.07545H8.05474ZM6.17191 7.64924V6.23236C6.28027 6.24762 6.38968 6.25577 6.5 6.25577C6.61022 6.25577 6.71955 6.24762 6.82785 6.23238V7.64924H6.17191ZM8.73785 4.23305C8.12832 5.26259 7.33357 5.82959 6.49998 5.82959C5.66638 5.82959 4.87161 5.26259 4.26206 4.23305C3.65809 3.21289 3.31276 1.86801 3.28173 0.426209H9.71818C9.68717 1.86798 9.34181 3.21289 8.73785 4.23305ZM11.2077 2.18425L10.8964 3.82909C10.8169 4.24937 10.4238 4.5544 9.96157 4.5544H9.07173C9.09575 4.51597 9.11957 4.47706 9.14303 4.4374C9.17548 4.38258 9.20701 4.32666 9.23804 4.27013H9.9616C10.2742 4.27013 10.5398 4.06405 10.5932 3.78034L10.9047 2.13494C10.9372 1.96176 10.8855 1.78584 10.7638 1.65323C10.6921 1.57422 10.533 1.44166 10.2725 1.44166H10.107C10.1187 1.34756 10.129 1.25282 10.138 1.15755H10.2725C10.5535 1.15755 10.8184 1.27141 10.9992 1.46992C11.18 1.66846 11.256 1.92883 11.2077 2.18425Z" fill="black" fill-opacity="0.25"/>
    </g>
    <defs>
        <clipPath id="clip0_86_4">
            <rect width="13" height="12" fill="white"/>
        </clipPath>
    </defs>
</svg>
