<svg width="13" height="12" viewBox="0 0 13 12" fill="none" xmlns="http://www.w3.org/2000/svg">
    <path d="M12.1183 7.78036H10.9478V4.85627C10.9478 3.34994 9.87326 2.07106 8.39464 1.63806C8.36674 0.730526 7.5588 0 6.56898 0H6.53798C5.55909 0 4.7577 0.714431 4.71319 1.60804C3.1792 2.00922 2.05213 3.31352 2.05213 4.85627V7.78036H0.881714V10.5533H4.66225C4.80358 11.3721 5.57375 12 6.49998 12C7.42621 12 8.19637 11.3721 8.3377 10.5533H12.1182V7.78036H12.1183ZM6.53798 0.542523H6.56898C7.18841 0.542523 7.70315 0.964209 7.79397 1.51292C7.62952 1.49194 7.46167 1.48084 7.29107 1.48084H5.70885C5.57594 1.48084 5.44468 1.4876 5.31542 1.50044C5.41197 0.957879 5.92329 0.542523 6.53798 0.542523ZM6.49998 11.4574C5.89896 11.4574 5.39422 11.071 5.26115 10.5532H7.7388C7.60574 11.071 7.101 11.4574 6.49998 11.4574ZM11.5305 10.0107H1.46945V8.32285H2.6399V4.85624C2.6399 3.29417 4.01665 2.02332 5.70889 2.02332H7.29111C8.98335 2.02332 10.3601 3.29417 10.3601 4.85624V8.32285H11.5305V10.0107Z" fill="black" fill-opacity="0.25"/>
</svg>
