<svg width="8" height="8" viewBox="0 0 8 8" fill="none" xmlns="http://www.w3.org/2000/svg">
    <path d="M4.00002 0.666656C2.19302 0.666656 0.666687 2.19299 0.666687 3.99999C0.666687 5.80699 2.19302 7.33332 4.00002 7.33332C5.80702 7.33332 7.33335 5.80699 7.33335 3.99999C7.33335 2.19299 5.80702 0.666656 4.00002 0.666656ZM4.00002 2.33332C4.57569 2.33332 5.00002 2.75732 5.00002 3.33332C5.00002 3.90932 4.57569 4.33332 4.00002 4.33332C3.42469 4.33332 3.00002 3.90932 3.00002 3.33332C3.00002 2.75732 3.42469 2.33332 4.00002 2.33332ZM2.29802 5.59066C2.59702 5.15066 3.09569 4.85732 3.66669 4.85732H4.33335C4.90469 4.85732 5.40302 5.15066 5.70202 5.59066C5.27602 6.04666 4.67169 6.33332 4.00002 6.33332C3.32835 6.33332 2.72402 6.04666 2.29802 5.59066Z" fill="#6C63FF"/>
</svg>
