<svg width="11" height="10" viewBox="0 0 11 10" fill="none" xmlns="http://www.w3.org/2000/svg">
    <path d="M4.41665 8C5.37809 7.99982 6.31183 7.70272 7.06919 7.156L9.45035 9.354L10.2163 8.647L7.8351 6.449C8.42769 5.74983 8.74975 4.88772 8.74998 4C8.74998 1.7945 6.80594 0 4.41665 0C2.02735 0 0.083313 1.7945 0.083313 4C0.083313 6.2055 2.02735 8 4.41665 8ZM4.41665 1C6.20902 1 7.66665 2.3455 7.66665 4C7.66665 5.6545 6.20902 7 4.41665 7C2.62427 7 1.16665 5.6545 1.16665 4C1.16665 2.3455 2.62427 1 4.41665 1Z" fill="black" fill-opacity="0.22"/>
</svg>
